<svg width="24" height="24" viewBox="0 0 24 24" fill="none" xmlns="http://www.w3.org/2000/svg">
<g clip-path="url(#clip0_6_22)">
<path d="M12 1.44L22 4.94V13C22 17.127 19.467 20.012 17.104 21.803C15.6783 22.874 14.1141 23.747 12.454 24.398C12.4251 24.4092 12.3961 24.4202 12.367 24.431L12.342 24.44L12.335 24.442L12.332 24.443C12.331 24.443 12.33 24.443 12 23.5L11.669 24.444L11.665 24.442L11.658 24.44L11.633 24.43C11.4994 24.3807 11.3667 24.329 11.235 24.275C9.68949 23.6377 8.23117 22.8067 6.895 21.802C4.535 20.013 2 17.128 2 13.001V4.94L12 1.44ZM12 23.5L11.669 24.444L12 24.56L12.331 24.444L12 23.5ZM12 22.428L12.009 22.424C13.3929 21.8525 14.6989 21.1083 15.896 20.209C18.034 18.59 20 16.223 20 13V6.36L12 3.56L4 6.36V13C4 16.223 5.966 18.588 8.104 20.21C9.30371 21.111 10.6128 21.8563 12 22.428ZM18.072 9.343L11.001 16.414L6.758 12.172L8.173 10.757L11 13.586L16.657 7.929L18.072 9.343Z" fill="black"/>
</g>
<defs>
<clipPath id="clip0_6_22">
<rect width="24" height="24" fill="white"/>
</clipPath>
</defs>
</svg>
